# Blender v2.72 (sub 0) OBJ File: '13.blend'
# www.blender.org
mtllib tubeO13.mtl
o Cylinder_Cylinder.001
v -0.500000 0.000000 -0.500000
v 0.500000 -0.000000 -0.500000
v -0.500000 -0.097545 -0.490393
v 0.500000 -0.097545 -0.490393
v -0.500000 -0.191342 -0.461940
v 0.500000 -0.191342 -0.461940
v -0.500000 -0.277785 -0.415735
v 0.500000 -0.277785 -0.415735
v -0.500000 -0.353553 -0.353553
v 0.500000 -0.353553 -0.353553
v -0.500000 -0.415735 -0.277785
v 0.500000 -0.415735 -0.277785
v -0.500000 -0.461940 -0.191342
v 0.500000 -0.461940 -0.191342
v -0.500000 -0.490393 -0.097545
v 0.500000 -0.490393 -0.097545
v -0.500000 -0.500000 -0.000000
v 0.500000 -0.500000 -0.000000
v -0.500000 -0.490393 0.097545
v 0.500000 -0.490393 0.097545
v -0.500000 -0.461940 0.191342
v 0.500000 -0.461940 0.191342
v -0.500000 -0.415735 0.277785
v 0.500000 -0.415735 0.277785
v -0.500000 -0.353553 0.353553
v 0.500000 -0.353553 0.353553
v -0.500000 -0.277785 0.415735
v 0.500000 -0.277785 0.415735
v -0.500000 -0.191342 0.461940
v 0.500000 -0.191342 0.461940
v -0.500000 -0.097545 0.490393
v 0.500000 -0.097545 0.490393
v -0.500000 0.000000 0.500000
v 0.500000 0.000000 0.500000
v -0.500000 0.097545 0.490393
v 0.500000 0.097545 0.490393
v -0.500000 0.191342 0.461940
v 0.500000 0.191342 0.461940
v -0.500000 0.277785 0.415735
v 0.500000 0.277785 0.415735
v -0.500000 0.353554 0.353553
v 0.500000 0.353554 0.353553
v -0.500000 0.415735 0.277785
v 0.500000 0.415735 0.277785
v -0.500000 0.461940 0.191341
v 0.500000 0.461940 0.191341
v -0.500000 0.490393 0.097545
v 0.500000 0.490393 0.097545
v -0.500000 0.500000 -0.000000
v 0.500000 0.500000 -0.000000
v -0.500000 0.490393 -0.097546
v 0.500000 0.490393 -0.097546
v -0.500000 0.461940 -0.191342
v 0.500000 0.461940 -0.191342
v -0.500000 0.415734 -0.277786
v 0.500000 0.415734 -0.277786
v -0.500000 0.353553 -0.353554
v 0.500000 0.353553 -0.353554
v -0.500000 0.277785 -0.415735
v 0.500000 0.277785 -0.415735
v -0.500000 0.191341 -0.461940
v 0.500000 0.191341 -0.461940
v -0.500000 0.097544 -0.490393
v 0.500000 0.097544 -0.490393
vn 0.000000 -0.000000 -1.000000
vn 0.000000 -0.195100 -0.980800
vn -0.000000 -0.382700 -0.923900
vn -0.000000 -0.555600 -0.831500
vn -0.000000 -0.707100 -0.707100
vn -0.000000 -0.831500 -0.555600
vn -0.000000 -0.923900 -0.382700
vn -0.000000 -0.980800 -0.195100
vn -0.000000 -1.000000 -0.000000
vn -0.000000 -0.980800 0.195100
vn -0.000000 -0.923900 0.382700
vn -0.000000 -0.831500 0.555600
vn -0.000000 -0.707100 0.707100
vn 0.000000 -0.555600 0.831500
vn 0.000000 -0.382700 0.923900
vn 0.000000 -0.195100 0.980800
vn 0.000000 0.000000 1.000000
vn 0.000000 0.195100 0.980800
vn 0.000000 0.382700 0.923900
vn 0.000000 0.555600 0.831500
vn 0.000000 0.707100 0.707100
vn 0.000000 0.831500 0.555600
vn 0.000000 0.923900 0.382700
vn 0.000000 0.980800 0.195100
vn 0.000000 1.000000 -0.000000
vn 0.000000 0.980800 -0.195100
vn 0.000000 0.923900 -0.382700
vn 0.000000 0.831500 -0.555600
vn 0.000000 0.707100 -0.707100
vn 0.000000 0.555600 -0.831500
vn 0.000000 0.382700 -0.923900
vn -0.000000 0.195100 -0.980800
g Cylinder_Cylinder.001_Material.001
usemtl Material.001
s 1
f 2//1 4//2 3//2
f 4//2 6//3 5//3
f 6//3 8//4 7//4
f 8//4 10//5 9//5
f 10//5 12//6 11//6
f 11//6 12//6 14//7
f 13//7 14//7 16//8
f 15//8 16//8 18//9
f 18//9 20//10 19//10
f 19//10 20//10 22//11
f 22//11 24//12 23//12
f 24//12 26//13 25//13
f 26//13 28//14 27//14
f 28//14 30//15 29//15
f 30//15 32//16 31//16
f 32//16 34//17 33//17
f 34//17 36//18 35//18
f 36//18 38//19 37//19
f 38//19 40//20 39//20
f 40//20 42//21 41//21
f 42//21 44//22 43//22
f 44//22 46//23 45//23
f 46//23 48//24 47//24
f 48//24 50//25 49//25
f 49//25 50//25 52//26
f 52//26 54//27 53//27
f 54//27 56//28 55//28
f 56//28 58//29 57//29
f 58//29 60//30 59//30
f 60//30 62//31 61//31
f 62//31 64//32 63//32
f 64//32 2//1 1//1
f 1//1 2//1 3//2
f 3//2 4//2 5//3
f 5//3 6//3 7//4
f 7//4 8//4 9//5
f 9//5 10//5 11//6
f 13//7 11//6 14//7
f 15//8 13//7 16//8
f 17//9 15//8 18//9
f 17//9 18//9 19//10
f 21//11 19//10 22//11
f 21//11 22//11 23//12
f 23//12 24//12 25//13
f 25//13 26//13 27//14
f 27//14 28//14 29//15
f 29//15 30//15 31//16
f 31//16 32//16 33//17
f 33//17 34//17 35//18
f 35//18 36//18 37//19
f 37//19 38//19 39//20
f 39//20 40//20 41//21
f 41//21 42//21 43//22
f 43//22 44//22 45//23
f 45//23 46//23 47//24
f 47//24 48//24 49//25
f 51//26 49//25 52//26
f 51//26 52//26 53//27
f 53//27 54//27 55//28
f 55//28 56//28 57//29
f 57//29 58//29 59//30
f 59//30 60//30 61//31
f 61//31 62//31 63//32
f 63//32 64//32 1//1
